<?xml version="1.0" encoding="UTF-8" standalone="no"?>
<svg
   xmlns:sketch="http://www.bohemiancoding.com/sketch/ns"
   xmlns:dc="http://purl.org/dc/elements/1.1/"
   xmlns:cc="http://creativecommons.org/ns#"
   xmlns:rdf="http://www.w3.org/1999/02/22-rdf-syntax-ns#"
   xmlns:svg="http://www.w3.org/2000/svg"
   xmlns="http://www.w3.org/2000/svg"
   xmlns:xlink="http://www.w3.org/1999/xlink"
   xmlns:sodipodi="http://sodipodi.sourceforge.net/DTD/sodipodi-0.dtd"
   xmlns:inkscape="http://www.inkscape.org/namespaces/inkscape"
   width="451"
   height="150"
   viewBox="0 0 451 150"
   version="1.1"
   id="svg24"
   sodipodi:docname="october-color-logo-v1.svg"
   inkscape:version="1.0.1 (3bc2e813f5, 2020-09-07)">
  <metadata
     id="metadata28">
    <rdf:RDF>
      <cc:Work
         rdf:about="">
        <dc:format>image/svg+xml</dc:format>
        <dc:type
           rdf:resource="http://purl.org/dc/dcmitype/StillImage" />
        <dc:title>october-color-logo</dc:title>
      </cc:Work>
    </rdf:RDF>
  </metadata>
  <sodipodi:namedview
     pagecolor="#ffffff"
     bordercolor="#666666"
     borderopacity="1"
     objecttolerance="10"
     gridtolerance="10"
     guidetolerance="10"
     inkscape:pageopacity="0"
     inkscape:pageshadow="2"
     inkscape:window-width="1920"
     inkscape:window-height="1018"
     id="namedview26"
     showgrid="false"
     inkscape:zoom="1.8391416"
     inkscape:cx="171.01154"
     inkscape:cy="17.5"
     inkscape:window-x="-6"
     inkscape:window-y="-6"
     inkscape:window-maximized="1"
     inkscape:current-layer="svg24" />
  <!-- Generator: Sketch 3.4.4 (17248) - http://www.bohemiancoding.com/sketch -->
  <title
     id="title2">october-color-logo</title>
  <desc
     id="desc4">Created with Sketch.</desc>
  <defs
     id="defs7">
    <path
       id="path-1"
       d="M 0,0.35484615 H 212.75088 V 35 H 0" />
  </defs>
  <g
     id="Page-1"
     stroke="none"
     stroke-width="1"
     fill="none"
     fill-rule="evenodd"
     sketch:type="MSPage"
     transform="matrix(2.1151533,0,0,2.1151533,0.54367269,39.296723)">
    <g
       id="logo"
       sketch:type="MSLayerGroup">
      <path
         d="m 26.656923,17.665092 c 0,-1.67623 -0.213531,-3.183384 -0.639531,-4.525769 C 25.592455,11.799092 24.979482,10.660785 24.180599,9.7314 23.382248,8.7998615 22.403297,8.0874769 21.247998,7.5899385 20.091105,7.0940154 18.77433,6.8457846 17.299265,6.8457846 c -1.491,0 -2.819461,0.2482308 -3.981666,0.7441539 -1.16486,0.4975384 -2.144873,1.209923 -2.944286,2.1414615 -0.7999457,0.929385 -1.4113247,2.067692 -1.8389182,3.407923 -0.4249377,1.342385 -0.6384689,2.849539 -0.6384689,4.525769 0,1.690769 0.2135312,3.207077 0.6384689,4.547308 0.4275935,1.342923 1.0389725,2.479077 1.8389182,3.410615 0.799413,0.929923 1.779426,1.639616 2.944286,2.127462 1.162205,0.49 2.490666,0.733384 3.981666,0.733384 1.475065,0 2.79184,-0.243384 3.948733,-0.733384 1.155299,-0.487846 2.13425,-1.197539 2.932601,-2.127462 0.798883,-0.931538 1.411856,-2.067692 1.836793,-3.410615 0.426,-1.340231 0.639531,-2.856539 0.639531,-4.547308 m 7.897467,0 c 0,2.451616 -0.415908,4.731462 -1.245068,6.841154 -0.82969,2.109154 -1.995613,3.943692 -3.502548,5.502 -1.505873,1.557769 -3.320357,2.779539 -5.443452,3.663693 -2.123094,0.884153 -4.476718,1.326769 -7.064057,1.326769 -2.586808,0 -4.944149,-0.442616 -7.074681,-1.326769 C 8.0945843,32.787785 6.2731953,31.566015 4.7588237,30.008246 3.2428586,28.449938 2.0732177,26.6154 1.2429958,24.506246 0.41436733,22.396554 5.3117207e-5,20.116708 5.3117207e-5,17.665092 5.3117207e-5,15.215092 0.41436733,12.934708 1.2429958,10.8234 2.0732177,8.7142461 3.2428586,6.8856308 4.7588237,5.3332461 6.2731953,3.7819385 8.0945843,2.5644769 10.224584,1.6803231 c 2.130532,-0.88415387 4.487873,-1.32515387 7.074681,-1.32515387 2.587339,0 4.940963,0.44530769 7.064057,1.33699997 2.123095,0.8938462 3.937579,2.115077 5.443452,3.6653077 1.506935,1.5507692 2.672858,3.3815385 3.502548,5.4912311 0.82916,2.109154 1.245068,4.381461 1.245068,6.816384"
         id="Fill-1"
         fill="#586667"
         sketch:type="MSShapeGroup" />
      <g
         id="Group-5">
        <mask
           id="mask-2"
           sketch:name="Clip 4"
           fill="#ffffff">
          <use
             xlink:href="#path-1"
             id="use10"
             x="0"
             y="0"
             width="100%"
             height="100%" />
        </mask>
        <g
           id="Clip-4" />
        <path
           d="m 56.178458,25.623177 c -0.786666,0.929923 -1.751275,1.639615 -2.889576,2.128 -1.139896,0.488923 -2.437549,0.732846 -3.890836,0.732846 -1.469222,0 -2.77803,-0.243923 -3.922705,-0.732846 -1.148394,-0.488385 -2.114065,-1.198077 -2.901262,-2.128 -0.788791,-0.931539 -1.390609,-2.067692 -1.811828,-3.410616 -0.419095,-1.34023 -0.629439,-2.857076 -0.629439,-4.547307 0,-1.676231 0.210344,-3.183385 0.629439,-4.525769 0.421219,-1.340231 1.023037,-2.478539 1.811828,-3.4084619 0.787197,-0.931 1.752868,-1.6433846 2.901262,-2.1409231 1.144675,-0.4964615 2.453483,-0.7446923 3.922705,-0.7446923 1.453287,0 2.75094,0.2482308 3.890836,0.7446923 1.138301,0.4975385 2.10291,1.2099231 2.889576,2.1409231 0.380319,0.4490769 0.718144,0.9460769 1.01082,1.4926159 0.565167,1.055384 1.983928,0.929384 1.983928,0.929384 h 6.433556 C 65.475031,11.7131 65.33852,11.275331 65.172794,10.848869 64.355852,8.7391769 63.206395,6.9084077 61.72177,5.3576385 60.237675,3.8068692 58.44975,2.5856385 56.358525,1.6923308 54.266238,0.8001 51.948203,0.35479231 49.398046,0.35479231 c -2.548563,0 -4.871379,0.44153846 -6.970039,1.32569229 -2.098661,0.8841539 -3.894023,2.1010769 -5.386085,3.6523846 -1.493125,1.5529231 -2.645768,3.3815385 -3.463773,5.4906928 -0.816412,2.111307 -1.224883,4.391153 -1.224883,6.841692 0,2.451077 0.408471,4.731461 1.224883,6.841154 0.818005,2.109153 1.970648,3.943692 3.463773,5.502 1.492062,1.557769 3.287424,2.779538 5.386085,3.663154 2.09866,0.884692 4.421476,1.327307 6.970039,1.327307 2.550157,0 4.868192,-0.442615 6.960479,-1.327307 2.091225,-0.883616 3.87915,-2.105385 5.363245,-3.663154 1.484625,-1.558308 2.634082,-3.392847 3.451024,-5.502 0.165726,-0.427 0.302769,-0.866923 0.434499,-1.307385 h -6.434087 c -0.590663,0 -1.538274,0.05869 -2.128406,1.069385 -0.234247,0.401153 -0.433437,0.842692 -0.866342,1.354769"
           id="Fill-3"
           fill="#586667"
           sketch:type="MSShapeGroup"
           mask="url(#mask-2)" />
      </g>
      <path
         d="m 103.09875,17.665092 c 0,-1.67623 -0.213,-3.183384 -0.63847,-4.525769 -0.42494,-1.340231 -1.03791,-2.478538 -1.8368,-3.407923 C 99.824601,8.7998615 98.845651,8.0874769 97.690883,7.5899385 96.533459,7.0940154 95.216684,6.8457846 93.741088,6.8457846 c -1.490469,0 -2.818399,0.2482308 -3.980604,0.7441539 -1.165923,0.4975384 -2.145935,1.209923 -2.944818,2.1414615 -0.799945,0.929385 -1.411855,2.067692 -1.838918,3.407923 -0.424937,1.342385 -0.639,2.849539 -0.639,4.525769 0,1.690769 0.214063,3.207077 0.639,4.547308 0.427063,1.342923 1.038973,2.479077 1.838918,3.410615 0.798883,0.929923 1.778895,1.639616 2.944818,2.127462 1.162205,0.49 2.490135,0.733384 3.980604,0.733384 1.475596,0 2.792371,-0.243384 3.949795,-0.733384 1.154768,-0.487846 2.133718,-1.197539 2.932597,-2.127462 0.79889,-0.931538 1.41186,-2.067692 1.8368,-3.410615 0.42547,-1.340231 0.63847,-2.856539 0.63847,-4.547308 m 7.89746,0 c 0,2.451616 -0.41697,4.731462 -1.24347,6.841154 -0.83129,2.109154 -1.99774,3.943692 -3.50255,5.502 -1.50747,1.557769 -3.32089,2.779539 -5.44505,3.663693 -2.122559,0.884153 -4.476182,1.326769 -7.064052,1.326769 -2.586808,0 -4.943619,-0.442616 -7.073619,-1.326769 -2.131062,-0.884154 -3.952982,-2.105924 -5.465761,-3.663693 -1.517027,-1.558308 -2.687199,-3.392846 -3.516359,-5.502 -0.828628,-2.109692 -1.242942,-4.389538 -1.242942,-6.841154 0,-2.45 0.414314,-4.730384 1.242942,-6.841692 0.82916,-2.1091539 1.999332,-3.9377692 3.516359,-5.4901539 1.512779,-1.5513076 3.334699,-2.7687692 5.465761,-3.652923 2.13,-0.88415387 4.486811,-1.32515387 7.073619,-1.32515387 2.58787,0 4.941493,0.44530769 7.064052,1.33699997 2.12416,0.8938462 3.93758,2.115077 5.44505,3.6653077 1.50481,1.5507692 2.67126,3.3815385 3.50255,5.4912311 0.8265,2.109154 1.24347,4.381461 1.24347,6.816384"
         id="Fill-6"
         fill="#586667"
         sketch:type="MSShapeGroup" />
      <path
         d="m 119.62393,20.2475 v 8.446846 h 5.45992 c 1.02569,0 1.86495,-0.133 2.51563,-0.395769 0.64963,-0.264923 1.15902,-0.606308 1.52553,-1.024154 0.36757,-0.418923 0.61935,-0.891692 0.75745,-1.421 0.13704,-0.525538 0.2061,-1.061308 0.2061,-1.603 0,-0.621385 -0.0797,-1.179769 -0.2401,-1.676231 -0.16041,-0.495923 -0.43556,-0.914307 -0.82544,-1.256769 -0.39094,-0.340846 -0.90883,-0.604692 -1.55155,-0.791538 -0.64272,-0.185231 -1.45276,-0.278385 -2.43171,-0.278385 z m 0,-5.258615 h 4.03904 c 0.85625,0 1.62857,-0.06138 2.31856,-0.184693 0.68734,-0.124923 1.27322,-0.340846 1.75553,-0.651538 0.4823,-0.310692 0.84775,-0.737154 1.10218,-1.280462 0.2523,-0.543307 0.37713,-1.225 0.37713,-2.048307 0,-0.804462 -0.0983,-1.4764619 -0.29746,-2.0127696 -0.19919,-0.5336154 -0.50567,-0.9638462 -0.91892,-1.2912308 -0.41219,-0.3257692 -0.93752,-0.5567692 -1.57121,-0.6967692 -0.63635,-0.14 -1.38902,-0.21 -2.26067,-0.21 h -4.54418 z M 111.8667,34.626577 V 0.72611538 h 12.30141 c 2.3106,0 4.277,0.21807693 5.89814,0.65153842 1.62166,0.435077 2.94588,1.0467693 3.97051,1.8388462 1.02516,0.7904615 1.77092,1.7526923 2.23836,2.8850769 0.46636,1.1323846 0.70061,2.3972308 0.70061,3.7929231 0,0.759231 -0.10836,1.491539 -0.32189,2.198 -0.21512,0.706462 -0.55082,1.368769 -1.01082,1.990154 -0.45893,0.619231 -1.04641,1.180846 -1.76668,1.687 -0.71867,0.503461 -1.58395,0.941231 -2.59477,1.313846 2.20542,0.543846 3.83347,1.424231 4.89103,2.641692 1.05491,1.218 1.58236,2.779 1.58236,4.687308 0,1.440923 -0.27568,2.783846 -0.8265,4.023923 -0.55083,1.242231 -1.35821,2.322923 -2.42055,3.247462 -1.06394,0.922384 -2.37594,1.643923 -3.93705,2.162461 -1.56058,0.520692 -3.3432,0.780231 -5.34837,0.780231 z"
         id="Fill-8"
         fill="#586667"
         sketch:type="MSShapeGroup" />
      <path
         d="m 160.40594,0.7259 v 6.0496154 h -13.72601 v 7.9110766 h 10.51189 v 5.817 h -10.51189 v 8.072616 h 13.72601 v 6.050154 H 138.87701 V 0.7259 Z"
         id="Fill-10"
         fill="#586667"
         sketch:type="MSShapeGroup" />
      <path
         d="m 169.65009,16.665223 h 3.1217 c 1.05438,0 1.95418,-0.136231 2.69623,-0.407077 0.74258,-0.272461 1.3513,-0.647769 1.82564,-1.129154 0.47433,-0.480307 0.818,-1.043 1.0326,-1.685923 0.21246,-0.644538 0.32189,-1.339154 0.32189,-2.083308 0,-1.4883071 -0.47912,-2.6529995 -1.43523,-3.4892302 -0.95611,-0.8389231 -2.43702,-1.2573077 -4.44113,-1.2573077 h -3.1217 z m 0,5.420692 v 12.54077 h -7.75724 V 0.72568462 h 10.87894 c 2.4163,0 4.47831,0.25415384 6.1855,0.75761538 1.70559,0.504 3.09939,1.2061539 4.1766,2.1053846 1.07935,0.9003077 1.86229,1.9616154 2.35416,3.1871539 0.48815,1.225 0.73302,2.5593077 0.73302,4.0029235 0,1.101692 -0.14555,2.139307 -0.43716,3.116077 -0.28843,0.977307 -0.72239,1.882461 -1.295,2.711692 -0.57419,0.829231 -1.27853,1.569615 -2.1114,2.221692 -0.83501,0.652077 -1.79537,1.186231 -2.88214,1.605154 0.52107,0.264923 1.0071,0.590692 1.45806,0.976769 0.45044,0.388231 0.84563,0.861539 1.18398,1.419923 l 7.11346,11.796616 h -7.02209 c -1.30244,0 -2.23464,-0.496462 -2.80087,-1.488308 l -5.55447,-9.842539 c -0.24487,-0.435615 -0.53277,-0.744153 -0.86156,-0.932077 -0.32773,-0.184692 -0.79198,-0.277846 -1.38689,-0.277846 z"
         id="Fill-12"
         fill="#586667"
         sketch:type="MSShapeGroup" />
      <path
         d="m 67.633662,0.7259 v 13.592385 h -8.521594 c -0.771262,0 -1.39592,0.607384 -1.39592,1.355307 v 4.005077 c 0,0.749 0.624658,1.355846 1.39592,1.355846 h 8.521594 v 13.591847 h 7.757237 V 0.7259 Z"
         id="Fill-14"
         fill="#586667"
         sketch:type="MSShapeGroup" />
      <path
         d="M 212.7248,16.950769 C 212.18247,8.0995385 202.5417,0.44046154 198.57013,0.35592308 194.59696,0.27030769 187.1717,9.6443846 186.87106,19.168692 186.58954,28.099077 194.21133,34.223 197.49238,35 c 0.0914,-4.201615 0.42759,-19.671077 0.4839,-21.474923 0.11845,-3.6863078 0.29958,-9.4220001 0.91521,-9.6126155 0.35323,-0.1093076 0.83447,3.115 0.77551,5.0206154 -0.0122,0.3634616 -0.0165,1.5410771 -0.0165,3.2124621 0.6645,-0.67577 1.35821,-1.377385 1.77996,-1.792 1.15636,-1.1361544 1.66788,-1.0010005 1.11333,0.01238 -0.34154,0.623539 -1.81023,2.696616 -2.8901,4.198923 0.006,3.029923 0.0197,6.843308 0.034,10.396615 1.525,-1.785 3.39207,-3.924846 4.37261,-4.876307 2.05723,-1.993923 2.27607,-1.742462 1.30456,0.350538 -0.59651,1.282616 -3.5137,4.704 -5.66654,7.402231 0.0133,3.153231 0.0239,5.804077 0.026,7.069462 5.77544,-1.270231 13.53108,-9.266385 13.00044,-17.956616"
         id="Fill-16"
         fill="#db6a26"
         sketch:type="MSShapeGroup" />
    </g>
  </g>
</svg>
